<?xml version="1.0" encoding="UTF-8"?><svg id="_레이어_2" xmlns="http://www.w3.org/2000/svg" viewBox="0 0 700 1000"><path d="M343.1,384.96s-2.1,2.1-5.25-1.05-1.05-4.2-9.45-3.15-19.96-10.5-5.25-18.91l-6.3-3.15,9.45-5.25s-3.15-3.15,0-8.4,5.25-6.3-1.05-10.5-3.15-18.91,19.96-22.06l-1.05-3.15h7.76s-1.45-4.2,4.85-11.55c6.3-7.35,12.6-3.15,16.81-3.15s3.15,1.05,6.3-4.2,5.25,4.2,5.25,4.2c0,0,6.3-7.35,13.65-10.5s12.6-7.35,12.6-10.5-3.15-8.4-3.15-8.4c0,0,16.81-3.15,21.01-9.45s13.65-6.3,17.86-12.6c4.2-6.3,3.15-22.06,13.65-18.91,0,0,13.65-12.6,32.56-15.76,0,0-4.2-37.81,0-44.12,4.2-6.3,1.05-7.35-4.2-9.45s-10.5-11.55,1.05-28.36,10.5-11.55,21.01-31.51c0,0,4.2-4.2,8.4-7.35s3.15-5.25,4.2-6.3,11.55-6.3,11.55-9.45-2.1-5.25,4.2-6.3,10.5-2.1,12.6,2.1,3.15,2.1,3.15,2.1c0,0,2.1-5.72,0-9.69s-11.55-6.07-12.6-20.77l-4.2,6.3s-17.86-12.6-17.86-21.01,1.05-10.5,1.05-10.5l-4.2-2.1-6.3,1.05-1.05-8.4s-5.25,3.15-11.55,1.05-9.45,6.3-6.3,11.55c0,0-6.3,7.35-6.3,13.65s1.05,9.45,0,11.55-2.1,6.3-1.05,11.55-1.05,4.2-1.05,4.2l-9.45,1.05-3.15,6.3s-5.25-3.15-9.45-5.25-6.3,1.05-10.5,5.25l-3.15,2.1s0,10.5-2.1,13.65-4.2,7.35-9.45,9.45-9.45,4.2-10.5,7.35-2.1,4.2-4.2,4.2-14.71-3.15-19.96,0-8.4,4.2-11.55,3.15-22.06-5.25-32.56,2.1c0,0,4.2,5.25,4.2,9.45s1.05,12.6,8.4,16.81,9.45,8.4,9.45,8.4c0,0-3.15,17.86-16.81,24.16,0,0-5.25-9.45-23.11-5.25-17.86,4.2-22.06-2.1-30.46-2.1s-17.86-5.25-17.86-5.25c0,0-3.15-2.1-6.3-1.05s-3.15-2.1-3.15-2.1l5.25-4.2s-6.3,2.1-8.4-4.2,0-10.5-16.81-13.65v4.68l-4.2-1.53-1.05,5.25-5.25-5.25s1.05,5.25-4.2,6.3-9.45,3.15-4.2,11.55c0,0-9.45-1.05-6.3,17.86,0,0-6.3-5.25-15.76,11.55s-12.6,12.6-15.76,17.86-6.3,17.86-6.3,17.86c0,0-4.2-2.1-7.35,4.2,0,0,0,2.1-7.35,0,0,0-1.05,4.2-3.15,4.2s0-5.25-6.3-2.1l-6.3,7.35s4.2,2.1,4.2,4.2,2.1,0-4.2,1.05-11.55,12.6-18.91,12.6c0,0-3.15,1.05-5.25-6.3,0,0-19.96,13.65-26.26,13.65,0,0,7.35,10.5-2.1,9.45s-12.6-5.25-14.71,1.05c0,0-3.15,4.2-5.25,5.25s-5.25,6.3-7.35,7.35-12.6,1.05-16.81,15.76c0,0-2.1,8.4-9.45,7.35,0,0,2.1,16.81-3.15,16.81v2.21s4.2-1.16,5.25,3.04,2.1,4.2,7.35,4.2,7.35-2.1,12.6,4.2c0,0-2.1,8.4,5.25,9.45l-3.15,7.35s10.5,0,9.45-8.4,0-8.4,0-8.4c0,0,12.6,5.25,13.65,8.4s4.2,4.2,5.25,4.2,15.76,5.25,15.76,5.25c0,0,5.25-3.15,7.35-1.05s1.05,8.4,6.3,7.35,12.6-10.5,14.71-10.5,2.1,2.1,2.1,2.1l-12.6,12.6,3.15,1.05-3.15,5.25h9.45s-2.1,3.15-2.1,9.45-10.5,7.35-5.25,11.55h-5.25l3.15,5.25-5.25-2.1s3.15,7.35,1.05,8.4-4.2-1.05-8.4,6.3-5.25,12.6,2.1,19.96c0,0,3.15,2.1,1.05,6.3,0,0,6.3,1.05,11.55-1.05s9.45-1.05,9.45-1.05h4.2c1.05,0,0,3.15,0,3.15,0,0-6.3-2.1-18.91,4.2v4.2h-3.4s2.35-5.25-5.01-2.1-9.45-1.05-9.45-1.05l1.05,7.35-11.55,2.1s4.2,8.4-6.3,22.06c-10.5,13.65-2.1,17.86-2.1,17.86h7.17l-5.07,4.2-5.25-3.15-15.76,12.6s2.1,3.15,9.45,1.05,6.3-3.15,8.4-3.15,5.25,6.3,11.55,5.25c6.3-1.05,14.71-5.25,17.86-3.15v5.25h-11.55s0,3.15,3.15,7.35-2.1,3.15-5.25,3.15-7.35,0-7.35,2.1c0,0,7.35,6.3,14.71,5.25s2.1-6.3,6.3-6.3,6.3,5.25,5.25,7.35-3.15,5.25-3.15,5.25c0,0,5.25,4.2,7.35-1.05s6.3-4.2,6.3-4.2l-4.2-6.3s3.15,3.15,4.2,1.05,4.2-2.1,4.2-2.1c0,0,5.25,8.4,1.05,11.55,0,0-14.71,1.05-5.25,4.2,0,0,1.05,3.15-3.15,3.15s-4.2-1.05-4.2-1.05v6.3s6.3,2.1,10.5-4.2,5.25-5.25,5.25-5.25h5.25s0,4.2,3.15,3.15c0,0-3.15-4.2,0-6.3s0-4.2,1.05-7.35,6.3-2.1,9.45-5.25,1.05-2.1,1.05-2.1h-4.2s0-5.25-5.25-5.25-5.25-5.25-5.25-5.25c0,0,6.3-2.1,8.4,3.15,0,0,11.55-1.05,12.6,1.05l-3.15,1.05s-2.1,2.1,2.1,4.2,3.15,9.45,3.15,9.45l4.2-2.1,2.1,6.3s4.2-1.05,3.15-10.5c0,0,7.35,2.1,8.4,4.2s4.2,8.4,7.35,8.4v-6.3s5.25,1.05,3.15-6.3c0,0,2.1-3.15,4.2,0s2.1,4.2,2.1,4.2l11.55-8.4s13.65,22.06,24.16,5.25c0,0,4.2,0,2.1,16.81,0,0-3.15-1.05-2.1-4.2s3.15-5.25-5.25-4.2c-8.4,1.05-9.45,0-14.71-3.15s-6.3,8.4-6.3,8.4c0,0,5.25,1.05,5.25,5.25s1.05,8.4,2.1,8.4h8.76s-4.56-11.55-.36-12.6c0,0,1.05,5.25,7.35,13.65,6.3,8.4,1.05,9.45,2.1,16.81s2.1,6.3,6.3,5.25,6.3,7.35,13.65,4.2l-2.1,7.35h-9.63l2.28,11.55s6.3-7.35,8.4-4.2-2.09,4.2-2.09,4.2c0,0-2.11,8.4-.01,9.45s9.45,5.25,8.4,9.45v2.1l11.55-3.15s-2.1,4.2-8.4,6.3-3.15,7.35-7.35,6.3c0,0-1.05-22.06-16.81-11.55,0,0-3.15-7.35-12.6-6.3l1.05,8.4-8.4-3.15s-3.15,3.15,4.2,6.3v2.1s-3.15,9.45-12.6,10.5l2.1-9.45-7.35,1.05-1.05,9.45-2.1-1.05s-7.35,5.25,3.15,7.35h6.3l2.1,10.5,2.1-8.4s3.15-1.05,3.15,1.05v4.2h6.3l1.05-6.3,4.2,23.11,6.3-2.1s-9.45,6.3-6.3,9.45,5.25,3.15,3.15,5.25,1.05,2.1,1.05,4.2-2.1,9.45-1.05,12.6c0,0,11.55,2.1,11.55,13.65l6.3-1.05-2.1,4.2-17.86,4.2h7.52l.89,4.2,14.71-2.1s5.25,4.2-7.35,5.25c0,0-3.15-1.05,4.2,4.2,7.35,5.25,1.05,6.3,1.05,6.3l-12.6-3.15s4.2,6.3-6.3,11.55c-10.5,5.25-7.35,7.35-7.35,7.35,0,0,1.05,2.1,9.45,1.05,8.4-1.05,7.35,4.2,7.35,4.2,0,0-25.21,4.2-24.16,16.81,1.05,12.6-5.25,13.65-6.3,18.91,0,0,5.25,0,6.3,3.15s1.05,4.2,7.35,8.4-5.25,11.55-5.25,11.55c0,0,0,2.1,3.15,11.55s-2.1,10.5-2.1,10.5l11.55-1.05s3.15-5.25,5.25-4.2-5.25,10.5-5.25,10.5l6.3,9.45s-4.2,2.1-8.4-1.05-5.25-5.25-5.25-5.25l-3.15,5.25,9.45,7.35s-7.35,3.15-11.55-7.35-5.25-8.4-5.25-8.4c0,0-10.5,17.86,18.91,21.01,0,0-5.25,6.3,4.2,10.5,0,0-3.15,6.3-2.1,7.35s4.2,2.1,4.2,2.1l-1.05,4.2s5.25-1.05,6.3-7.35,4.2-6.3,7.35-9.45,5.25-7.35,4.2-16.81c0,0,3.15-1.05,3.15,7.35s2.1,8.4,2.1,8.4h10.5l-1.05-5.25s4.2,0,5.25-13.65c0,0,9.45-8.4,15.76-9.45l2.1-7.35s3.15,6.3,9.45,2.1c0,0,4.2,8.4-1.05,11.55l-5.25-5.25s2.1,8.4-3.15,10.5-7.35,4.2-5.25,7.35c0,0,9.45-5.25,14.71,6.3,0,0,3.15-2.1,7.35-4.2s2.1-5.25,2.1-5.25l-6.3-2.1,12.6-4.2s-13.65-7.35-11.55-24.16c0,0,7.35,1.05,8.4-5.25h4.2s-2.1,2.1,4.2,10.5c6.3,8.4-4.2,5.25,2.1,13.65l4.2-11.55,6.3,3.15,4.2-14.71-13.65,5.25-3.15-12.6,5.25,4.2,6.3-8.4,4.2,3.15s13.65-2.1,11.55-8.4l7.35,1.05s-1.05-8.4,5.25-8.4c0,0-5.25,17.86,11.55,17.86l1.05-4.2,7.35,3.15,3.15-5.25,3.15,3.15-2.1,4.2,7.35,1.05-1.05-11.55,5.25-3.15h-9.45s8.4-15.76,18.91-6.3c0,0,3.15,2.1,1.05-1.05s-7.35-9.45-3.15-12.6l3.15,6.3s3.15-3.15,6.3,0,6.3,7.35,16.81,7.35,8.4,3.15,8.4,3.15h3.15s0-9.45,10.5-7.35l-1.05-4.2s8.4,0,9.45-12.6,7.35-5.25,8.4-13.65-2.1-7.35-2.1-7.35c0,0,6.3-2.1,4.2-7.35l4.2,3.15s0-12.6,3.15-24.16c3.15-11.55,0-17.86,1.05-19.96s7.35-10.5,5.25-13.65-5.25,8.4-13.65,8.4c0,0-4.2-3.15-3.15-8.4l3.15-3.15s-9.45-14.71-5.25-25.21,5.25-14.71,2.1-23.11,6.3-12.6,3.15-22.06c-3.15-9.45-6.3-4.2-5.25-16.81s1.05-11.55-3.15-13.65-1.05-15.76-12.6-26.26-14.71-18.91-14.71-19.96,4.2-1.05-1.05-6.3c-5.25-5.25-39.91-37.81-47.27-60.92-7.35-23.11-25.21-52.52-44.12-59.87s-16.81-22.06-29.41-22.06Z"/><path d="M255.92,551.97s-6.3-3.15-7.35,1.05-10.5,1.05-8.4,7.35c0,0,6.3,4.2,15.76-8.4Z"/><path d="M240.16,851.32s2.1,4.2-6.3,10.5-7.35,9.45-7.35,9.45c0,0,5.25-4.2,7.35,4.2,0,0,3.15-3.15,8.4-5.25,5.25-2.1,6.68-2.1,6.49-6.83s.02-5.65.02-5.65l-8.61-6.43Z"/><path d="M385.12,819.81v7.21h6.21l.09-10.36s-10.5,3.15-12.6-1.05c-2.1-4.2-1.05-5.25,1.05-8.4s-2.2-3.14-2.2-3.14c0,0-11.65,5.93,0,20.82l7.45-5.07Z"/><path d="M447.09,810.36s2.1-11.55-4.2-12.6l-1.05,4.2-3.15-1.05,1.05,7.35-7.35-2.1s-10.5,8.4,4.2,7.35l1.5,1.28s-2.55,3.97,1.65,6.07c0,0-1.7,4.96,1.78,6.16,0,0-.73-9.31,3.47-12.46s5.25-1.05,5.25-3.15-3.15-1.05-3.15-1.05Z"/><path d="M251.72,996.28s-3.15-5.25,9.45-6.3,46.1-8.13,46.68-25.07c0,0-.47-11.69-15.17-10.64s-42.65,13.98-43.91,15.39-.21,5.61-4.41,7.71-6.3,6.3-5.25,8.4l12.6,10.5Z"/><path d="M581.54,548.82s-2.1,1.05-6.3,2.1-6.3-1.05-3.15,4.2,5.25,4.2,5.25,4.2l4.2-3.34v-7.16Z"/><path d="M640,559.41s-4.9-2.19-3.84.96,3.84-.96,3.84-.96Z"/></svg>